<?xml version="1.0" encoding="UTF-8"?>
<svg id="Layer_1" xmlns="http://www.w3.org/2000/svg" version="1.1" viewBox="0 370 1080 340">
  <!-- Generator: Adobe Illustrator 29.1.0, SVG Export Plug-In . SVG Version: 2.1.0 Build 142)  -->
  <path d="M402.6,486.84v-51.44h-13.12v-1.73c29.52-1.21,39.18-1.38,42.29-26.41h1.9l-1.21,25.2h35.38v3.45l-35.38-.52v55.06c0,23.13,4.49,29.17,12.6,29.17,7.42,0,13.64-6.73,13.64-23.3,0-10.01-3.45-18.12-8.29-20.54,2.07-1.38,5.35-2.24,8.98-2.24,9.15,0,15.54,6.56,15.54,17.95,0,17.43-15.19,31.93-37.8,31.93s-34.52-12.25-34.52-36.59Z"/>
  <path d="M486.49,494.95v-69.91c0-15.88-3.45-22.27-13.29-23.65v-.69c18.12,0,31.93-2.93,44.19-8.63l.34.52c-1.38,5.18-2.42,11.91-3.11,28.48l-1.38,46.95h1.38c1.73-25.89,14.15-37.63,32.8-37.63s28.83,11.91,28.83,33.66v30.72c0,18.3,3.8,23.65,11.91,25.89v.69h-50.92v-.69c7.42-2.24,10.53-8.8,10.53-25.89v-29.69c0-14.5-4.14-21.23-12.77-21.23-11.91,0-20.02,17.78-20.02,37.8v13.29c0,17.26,2.59,23.47,10.53,25.72v.69h-50.92v-.69c8.11-2.24,11.91-10.36,11.91-25.72Z"/>
  <path d="M591.27,476.13c0-28.31,17.95-45.74,48.33-45.74s46.26,14.15,46.26,36.94c0,3.11-.17,6.39-.52,8.8h-64.38c.35,29.34,8.98,44.88,25.03,44.88,13.64,0,22.61-9.32,22.61-24.86,0-4.66-.86-9.49-2.42-11.57.69-.69,2.76-1.55,4.83-1.55,8.11,0,12.77,5.01,12.77,13.12,0,16.22-16.74,27.27-41.43,27.27-33.31,0-51.09-16.92-51.09-47.29ZM655.3,471.99c.52-2.59.86-6.56.86-10.87,0-19.33-5.35-28.31-16.57-28.31-12.43,0-18.47,12.43-18.64,41.25l34.35-2.07Z"/>
  <path d="M161.64,668.77v-66.28c0-16.4-2.42-22.09-11.91-25.2v-.86c18.99,0,30.38-3.11,40.56-6.39-.86,5.18-2.07,18.99-2.07,27.1h.69c2.59-18.47,14.5-27.27,32.28-27.27,22.61,0,36.59,16.92,36.59,45.57s-14.84,47.47-39.18,47.47c-12.6,0-23.82-6.39-27.79-17.78h-.69v23.65c0,17.61,2.93,23.65,10.53,25.89v.69h-50.92v-.69c7.94-2.24,11.91-10.18,11.91-25.89ZM207.72,655.48c12.6,0,20.2-14.84,20.2-40.04s-6.21-36.94-18.47-36.94-19.33,11.22-19.33,25.37v29.52c0,13.64,7.08,22.09,17.61,22.09Z"/>
  <path d="M267.1,639.42c0-13.64,6.73-20.54,30.55-25.2,22.44-4.49,32.97-13.81,32.97-25.37,0-9.84-6.39-16.92-18.12-16.92s-19.68,7.08-19.68,18.81c0,6.39,2.24,11.74,5.52,15.02-2.07,2.59-5.7,4.14-9.84,4.14-8.46,0-13.98-5.52-13.98-14.15,0-15.53,14.67-25.89,39.18-25.89s43.5,7.59,43.5,35.56v35.9c0,8.63,2.24,11.05,6.9,11.05,3.8,0,7.25-1.9,10.18-5.87l.52,1.21c-6.04,10.87-15.71,15.02-26.93,15.02-13.29,0-18.99-6.73-18.99-21.58v-3.28h-.86c-5.18,16.05-17.43,25.03-34.18,25.03s-26.75-8.8-26.75-23.47ZM308.87,650.82c10.36,0,19.85-11.39,19.85-27.1v-21.75c-2.07,3.28-7.77,7.42-15.19,10.53-12.08,5.35-17.26,11.22-17.26,23.47,0,9.67,4.83,14.84,12.6,14.84Z"/>
  <path d="M383.44,634.25v-31.93c0-16.05-2.24-21.92-11.91-25.03v-.86c18.12,0,30.21-3.11,40.39-6.39-1.04,14.33-1.73,28.31-1.73,37.28h1.21c2.76-24.86,11.74-37.46,27.27-37.46,14.33,0,22.27,8.46,22.27,23.3s-8.98,27.27-20.2,27.27c-3.8,0-7.08-1.04-10.01-2.76,4.83-4.66,9.15-17.09,9.15-27.27,0-9.15-2.76-13.98-8.63-13.98-10.01,0-19.33,21.92-19.33,46.09v11.74c0,16.74,2.76,23.65,11.91,25.89v.69h-52.3v-.69c7.94-2.24,11.91-10.53,11.91-25.89Z"/>
  <path d="M461.81,639.42c0-13.64,6.73-20.54,30.55-25.2,22.44-4.49,32.97-13.81,32.97-25.37,0-9.84-6.39-16.92-18.12-16.92s-19.68,7.08-19.68,18.81c0,6.39,2.24,11.74,5.52,15.02-2.07,2.59-5.7,4.14-9.84,4.14-8.46,0-13.98-5.52-13.98-14.15,0-15.53,14.67-25.89,39.18-25.89s43.5,7.59,43.5,35.56v35.9c0,8.63,2.24,11.05,6.9,11.05,3.8,0,7.25-1.9,10.18-5.87l.52,1.21c-6.04,10.87-15.71,15.02-26.93,15.02-13.29,0-18.99-6.73-18.99-21.58v-3.28h-.86c-5.18,16.05-17.43,25.03-34.18,25.03s-26.75-8.8-26.75-23.47ZM503.58,650.82c10.36,0,19.85-11.39,19.85-27.1v-21.75c-2.07,3.28-7.77,7.42-15.19,10.53-12.08,5.35-17.26,11.22-17.26,23.47,0,9.67,4.83,14.84,12.6,14.84Z"/>
  <path d="M569.69,616.99c0-30.21,16.05-47.12,39.18-47.12,13.64,0,25.03,7.77,28.48,18.99h.34v-24.51c0-15.54-3.45-22.09-13.29-23.47v-.69c17.43,0,31.42-2.76,44.01-8.63l.35.52c-1.9,6.39-2.93,17.26-2.93,30.03v73.88c0,13.29,2.93,16.4,8.8,16.4,5,0,7.94-2.07,10.87-5.87l.52,1.21c-5.35,10.01-15.02,15.02-26.41,15.02-13.46,0-19.68-7.25-19.68-22.27v-3.97h-1.21c-2.07,16.92-13.64,26.41-32.62,26.41-21.23,0-36.42-15.88-36.42-45.91ZM619.06,654.44c11.05,0,18.3-10.01,18.3-24.34v-31.41c0-12.6-7.25-21.4-17.43-21.4-11.56,0-20.54,13.81-20.54,40.04,0,24.51,8.46,37.11,19.68,37.11Z"/>
  <path d="M686.03,616.29c0-29.34,18.12-46.43,48.85-46.43s48.85,17.09,48.85,46.43-18.3,46.6-48.85,46.6-48.85-17.09-48.85-46.6ZM734.88,660.48c11.74,0,18.99-15.02,18.99-44.19s-7.25-44.01-18.99-44.01-19.16,15.02-19.16,44.01,7.25,44.19,19.16,44.19Z"/>
  <path d="M837.24,652.03c0-2.76-1.21-6.04-3.62-9.32l-14.5-21.23-11.91,17.09c-3.11,4.66-4.49,8.46-4.49,11.91,0,5.35,5.01,8.8,14.15,9.67v.69h-37.46v-.69c7.42-1.38,16.4-9.84,25.37-23.47l12.6-17.78-25.37-37.28c-3.28-4.83-7.08-8.11-11.05-8.98v-.69h49.71v.69c-3.28.34-5,1.9-5,4.32,0,2.24,1.21,5.18,4.66,10.53l14.84,21.4,9.84-13.12c3.11-5,4.83-9.32,4.83-13.29,0-5.52-5.18-8.98-15.02-9.84v-.69h38.49v.69c-6.56,1.21-13.46,7.25-21.75,18.81l-14.67,19.85,20.54,29.69c7.77,11.22,12.08,15.53,19.16,19.16v.69h-56.79v-.69c4.83-1.21,7.42-4.14,7.42-8.11Z"/>
  <path d="M887.47,647.37l18.3-18.3,18.3,18.3-18.3,18.3-18.3-18.3Z"/>
</svg>
